<svg xmlns="http://www.w3.org/2000/svg" viewBox="0 0 130.25 26.13"><defs><style>.cls-1{fill:#510c76;}.cls-2{fill:#9e28b5;}</style></defs><title>Asset 1</title><g id="Layer_2" data-name="Layer 2"><g id="Layer_1-2" data-name="Layer 1"><path class="cls-1" d="M129.85,15.71a6.21,6.21,0,0,0-4.9-2.2c-2.9,0-5.3,1.2-5.3,3.9,0,4.5,7.4,2.8,7.4,4.9,0,.7-.9,1.4-2.3,1.4a3.81,3.81,0,0,1-3.4-1.5l-2.2,1.7a7.47,7.47,0,0,0,5.8,2.2c2.7,0,5.3-1.3,5.3-4.2,0-4.5-7.5-2.7-7.5-4.8,0-.7.8-1.2,2.2-1.1a3.16,3.16,0,0,1,3,1.7Zm-14.8,5.8c0,1.5-1.7,2.2-3.1,2.2a1.71,1.71,0,0,1-1.9-1.5c0-1.1.9-1.4,2-1.7l1.6-.3a5.74,5.74,0,0,0,1.4-.4Zm2.9-4c0-3.4-2.6-3.9-5.1-3.9s-5.1,1.1-5.1,3.9l2.9.1c0-1.3.6-1.8,2.2-1.8,1.2,0,2.2.3,2.2,1.5v.4a20.73,20.73,0,0,1-3.1.7l-1.2.2c-1.8.4-3.6,1.4-3.6,3.7A3.71,3.71,0,0,0,110.86,26h.29a6,6,0,0,0,3.9-1.4,2.21,2.21,0,0,0,.3,1.1h3a3.21,3.21,0,0,1-.5-2Zm-29.9,8.2H91v-6.3c0-1.7,1-3.3,2.5-3.3s2,1,2,2.3v7.2h2.9v-6.3c0-1.7,1-3.3,2.6-3.3a2,2,0,0,1,2,2c0,.11,0,.21,0,.32v7.2h2.9v-8.4c0-2.6-1.6-3.8-4.2-3.8a4.61,4.61,0,0,0-3.7,1.8,3.69,3.69,0,0,0-3.5-1.8,4.37,4.37,0,0,0-3.4,1.5v-1.2h-2.9Zm-7.3-9.5c2.1,0,3.1,1.8,3.1,3.6s-1,3.6-3.1,3.6-3.1-1.7-3.1-3.6,1.1-3.6,3.1-3.6m0-2.6c-3.9,0-6.1,2.7-6.1,6.2s2.2,6.2,6.1,6.2,6.1-2.7,6.1-6.2-2.2-6.2-6.1-6.2m-18.3,12.1h2.9v-6.1c0-1.5.7-3.3,2.8-3.3,1.5,0,2.1.7,2.1,2.3v7.1h2.9v-7.9c0-3.4-2.3-4.3-4.4-4.3a4.22,4.22,0,0,0-3.4,1.5h0V9h-2.9Zm-8.9,0h3.2V11.91h4.6V9H49v2.9h4.6Zm-8.2,0h3.2v-3.3h-3.2Zm-6.7-11.9h-1.8v2.1h1.8V23c0,1.8.8,2.9,3.2,2.9a8.12,8.12,0,0,0,2.3-.3v-2.3c-.4,0-.9.1-1.3.1-1.1,0-1.3-.5-1.3-1.5v-6h2.6v-2.1h-2.6V9.61h-2.9ZM22,22.61a8.91,8.91,0,0,0,7.3,3.5c3.5,0,7.4-1.4,7.4-5.5,0-3.2-2.3-4.2-4.8-4.7l-2.1-.5c-1.9-.4-3.4-.7-3.4-2.1,0-1.2,1.4-1.9,3.2-1.9a4.68,4.68,0,0,1,4.4,2.4l2.6-2a8.41,8.41,0,0,0-7-3.4c-3.1,0-6.5,1.7-6.5,5.2,0,3.1,2.3,4.1,5,4.7l1.9.4c2.2.5,3.4.9,3.4,2.2,0,1.6-2,2.1-3.5,2.1a5.64,5.64,0,0,1-5-2.5Z"/><path class="cls-2" d="M79.15,5.31h1V3.21h2v-.8h-2V1.21h2.3V.31h-3.3ZM75.05.21a2.42,2.42,0,0,0-2.41,2.43.91.91,0,0,0,0,.17,2.41,2.41,0,1,0,4.8.44,3.23,3.23,0,0,0,0-.44A2.42,2.42,0,0,0,75.22.22h-.17m0,.8c1,0,1.4.9,1.4,1.8s-.4,1.8-1.4,1.8-1.4-.9-1.4-1.8.4-1.8,1.4-1.8m-7.7,4.3h.9v-2l1.7-3H69l-1.1,2.1L66.75.31h-1l1.7,3v2Zm-5.1,0h.9V1.21h1.4V.31h-3.7v.9h1.4Zm-3.8,0h.9v-5h-.9Zm-6-1a2.5,2.5,0,0,0,2.1,1c1,0,2.2-.4,2.2-1.6,0-.9-.7-1.2-1.4-1.4l-.6-.1c-.6-.1-1-.2-1-.7s.4-.6.9-.6a1.43,1.43,0,0,1,1.3.7l.8-.6a2.41,2.41,0,0,0-2.1-1,1.7,1.7,0,0,0-1.89,1.51.28.28,0,0,0,0,.09c0,.9.7,1.2,1.5,1.4l.6.1c.7.2,1,.3,1,.7s-.6.7-1.1.7a1.67,1.67,0,0,1-1.5-.7Zm-4-3.2h.9c.7,0,1,.3,1,.7a.71.71,0,0,1-.72.71H48.55Zm-1,4.2h.9V3.41h.9l1,1.8h1.1l-1.1-2a1.53,1.53,0,0,0,1-1.5c0-.9-.6-1.5-1.7-1.5h-2.1Zm-5.3,0h3.7v-.9h-2.7V3.11h2.4v-.8h-2.4V1.21h2.6V.31h-3.5Zm-4.1,0h1.3l1.5-5h-1l-1.1,4h0l-1.1-4h-1Zm-3.9,0h1v-5h-1Zm-5.8,0h.8V1.71h0l2.1,3.5h.8v-5h-.8v3.5h0L29.15.21h-.8Zm-1.9-5h-.9v3.2c0,.6-.3,1-1.1,1s-1.1-.4-1.1-1V.31h-.9v3.5a1.77,1.77,0,0,0,1.82,1.72l.18,0a1.75,1.75,0,0,0,2-1.52,1.1,1.1,0,0,0,0-.18Z"/><path class="cls-2" d="M18.35,10.31c-.2,0-.3.1-.5.2a2.07,2.07,0,0,1-1.1.4,1.49,1.49,0,0,1-1.1-.4,1.22,1.22,0,0,0-1.6,0,2.07,2.07,0,0,1-1.1.4,1.49,1.49,0,0,1-1.1-.4,1.22,1.22,0,0,0-1.6,0,1.69,1.69,0,0,1-.6.3v3.6h-1v-3.6a2.29,2.29,0,0,1-.5-.3,1.22,1.22,0,0,0-1.6,0,2.07,2.07,0,0,1-1.1.4,1.49,1.49,0,0,1-1.1-.4,1.14,1.14,0,0,0-.8-.3,1.12,1.12,0,0,0-.8.3,2.07,2.07,0,0,1-1.1.4,1.49,1.49,0,0,1-1.1-.4.79.79,0,0,0-.5-.2,15.49,15.49,0,0,0,.8,6.3h5.7v.5a1.23,1.23,0,0,0,.1.6H1.15a16.33,16.33,0,0,0,7.5,8.4v-6.2h1V26a15.94,15.94,0,0,0,7.5-8.4h-5.3c0-.2.1-.4.1-.6v-.5h5.7A16.27,16.27,0,0,0,18.35,10.31Zm-12.2,1.8a3,3,0,0,0,1,.9,2.42,2.42,0,0,1,1.2,1.2c.1.1.1.2.2.3a2.41,2.41,0,0,0-1.3.7,4,4,0,0,1-.1-.5,2.67,2.67,0,0,0-.7-1.4A2.91,2.91,0,0,1,6.15,12.11Zm0,3.9a2.35,2.35,0,0,0-1.1-1.1,1.3,1.3,0,0,1-.7-.9,2.27,2.27,0,0,0,1.3.5,3,3,0,0,1,1.6.7l.1.1a3.71,3.71,0,0,0-.7,1.2A1.15,1.15,0,0,1,6.15,16Zm-2,4.2a3,3,0,0,0,.9-1A2.34,2.34,0,0,1,6.25,18c.1-.1.2-.1.3-.2a2.73,2.73,0,0,0,.6,1.2c-.1.1-.3.1-.5.2a2.63,2.63,0,0,0-1.4.7A1.5,1.5,0,0,1,4.15,20.21Zm3.9.1A2.35,2.35,0,0,0,7,21.41a1.33,1.33,0,0,1-.9.7,1.91,1.91,0,0,0,.5-1.2,2.37,2.37,0,0,1,.7-1.6c0-.1.1-.1.1-.2a3.23,3.23,0,0,0,1.3.7A3.19,3.19,0,0,1,8.05,20.31Zm2.3-6.4a2.35,2.35,0,0,0,1.1-1.1,1.33,1.33,0,0,1,.9-.7,1.85,1.85,0,0,0-.5,1.2,2.35,2.35,0,0,1-.7,1.6.1.1,0,0,1-.1.1h0a3.29,3.29,0,0,0-1.3-.7A4.81,4.81,0,0,0,10.35,13.91Zm1.9,8.2a3,3,0,0,0-1-.9,2.27,2.27,0,0,1-1.2-1.2c-.1-.1-.1-.2-.2-.3a2.38,2.38,0,0,0,1.3-.7.8.8,0,0,1,.1.5,2.63,2.63,0,0,0,.7,1.4A3.12,3.12,0,0,1,12.25,22.11Zm0-3.9a2.35,2.35,0,0,0,1.1,1.1,1.84,1.84,0,0,1,.7.9,2.37,2.37,0,0,0-1.3-.5,2.9,2.9,0,0,1-1.6-.7l-.1-.1a3.9,3.9,0,0,0,.7-1.2C12,17.91,12.15,18,12.25,18.21Zm1.1-3.2a2.34,2.34,0,0,1-1.2,1.2c-.1.1-.2.1-.3.2a2.73,2.73,0,0,0-.6-1.2l-.1-.1c.1-.1.3-.1.5-.2a2.67,2.67,0,0,0,1.4-.7,2,2,0,0,1,1.1-.4A4.42,4.42,0,0,0,13.35,15Z"/><path class="cls-2" d="M1.65,9.41a1.14,1.14,0,0,0,.8-.3,2.16,2.16,0,0,1,1.1-.4,1.5,1.5,0,0,1,1.1.4,1.22,1.22,0,0,0,1.6,0,2.16,2.16,0,0,1,1.1-.4,1.5,1.5,0,0,1,1.1.4,1.12,1.12,0,0,0,.8.3h0a1.14,1.14,0,0,0,.8-.3,2.16,2.16,0,0,1,1.1-.4,1.5,1.5,0,0,1,1.1.4,1.22,1.22,0,0,0,1.6,0,2.16,2.16,0,0,1,1.1-.4,1.5,1.5,0,0,1,1.1.4,1.22,1.22,0,0,0,1.6,0,1.09,1.09,0,0,1,.7-.3l-2.9-5.9a1.67,1.67,0,0,1-1.4.5c-.9,0-1-.5-2.5-.5a2.78,2.78,0,0,0-2.1.7h0a2.78,2.78,0,0,0-2.1-.7c-1.5,0-1.6.5-2.5.5a2.21,2.21,0,0,1-1.6-.5L.35,8.81c.3.1.6.1.7.3A.6.6,0,0,0,1.65,9.41ZM11.45,4c1.4,0,1.6.4,2.5.4a2.6,2.6,0,0,0,1.2-.2l1.6,3.4s-.2.3-1.6.3-1.6-.8-3.7-.8a2.36,2.36,0,0,0-1.6.6l-.7-3A3.29,3.29,0,0,1,11.45,4Zm-8.3.2a2.6,2.6,0,0,0,1.2.2c.9,0,1.2-.4,2.5-.4a3.05,3.05,0,0,1,2.3.7l-.7,3A2.16,2.16,0,0,0,6.85,7c-2.1,0-2.3.8-3.7.8s-1.6-.3-1.6-.3Z"/></g></g></svg>